<?xml version="1.0" encoding="utf-8"?>
<!-- Generator: Adobe Illustrator 16.0.0, SVG Export Plug-In . SVG Version: 6.00 Build 0)  -->
<!DOCTYPE svg PUBLIC "-//W3C//DTD SVG 1.1//EN" "http://www.w3.org/Graphics/SVG/1.1/DTD/svg11.dtd">
<svg version="1.1" id="Layer_1" xmlns="http://www.w3.org/2000/svg" xmlns:xlink="http://www.w3.org/1999/xlink" x="0px" y="0px"
	 width="256px" height="256px" viewBox="0 0 256 256" enable-background="new 0 0 256 256" xml:space="preserve">
<rect x="127.791" y="5.608" transform="matrix(0.9647 0.2634 -0.2634 0.9647 11.7179 -32.7334)" fill="#939598" width="0.297" height="43.455"/>
<rect x="135.293" y="7.582" transform="matrix(0.9647 0.2634 -0.2634 0.9647 12.5078 -34.6391)" fill="#939598" width="0.297" height="43.494"/>
<path fill="#EE3133" d="M137.297,70.356l-0.154-0.038l-31.625-7.771l0.048-0.151c1.926-6.045,7.231-10.471,13.517-11.275
	c1.489-0.253,2.673-1.373,3.011-2.852L133.498,6.33c0.443-1.805,2.057-3.068,3.92-3.068c2.229,0,4.041,1.811,4.041,4.039
	c0,0.382-0.051,0.742-0.152,1.099l-11.448,41.947c-0.104,0.349-0.156,0.709-0.156,1.073c0,1.096,0.478,2.133,1.312,2.846
	c4.162,3.123,6.554,7.902,6.554,13.108c0,0.949-0.082,1.899-0.243,2.826L137.297,70.356z M105.896,62.335l31.162,7.658
	c0.141-0.861,0.212-1.741,0.212-2.619c0-5.111-2.347-9.805-6.44-12.877c-0.908-0.775-1.424-1.895-1.424-3.077
	c0-0.393,0.057-0.781,0.167-1.154l11.448-41.945c0.094-0.332,0.141-0.666,0.141-1.02c0-2.064-1.68-3.743-3.744-3.743
	c-1.727,0-3.222,1.17-3.634,2.846L122.38,48.341c-0.362,1.59-1.64,2.799-3.254,3.073C113,52.198,107.826,56.476,105.896,62.335"/>
<path fill="#FFFFFF" d="M137.297,70.356l0.119-0.485l-0.154-0.038l-31.625-7.772l-0.119,0.486l0.476,0.151l0.048-0.151
	c1.866-5.858,7.014-10.152,13.105-10.93l0.011-0.001l0.009-0.002c1.688-0.287,3.033-1.56,3.414-3.234l-0.487-0.111l0.482,0.131
	l11.406-41.946l0.002-0.005c0.39-1.582,1.8-2.688,3.435-2.688c0.978,0.001,1.859,0.397,2.502,1.038
	c0.643,0.643,1.039,1.525,1.039,2.502c-0.002,0.339-0.045,0.649-0.134,0.962v0.002l-11.448,41.95l0.481,0.132l-0.479-0.143
	c-0.117,0.395-0.177,0.804-0.177,1.216c0,1.241,0.544,2.418,1.487,3.226l0.012,0.011l0.014,0.009
	c4.037,3.032,6.351,7.656,6.353,12.708c0,0.92-0.08,1.842-0.235,2.74l-0.027,0.157L137.297,70.356l0.119-0.485L137.297,70.356
	l0.492,0.086l0.027-0.156c0.167-0.956,0.251-1.935,0.251-2.912c0.001-5.359-2.468-10.294-6.753-13.508l-0.301,0.4l0.326-0.38
	c-0.724-0.619-1.138-1.516-1.138-2.466c0-0.316,0.046-0.628,0.136-0.93l0.002-0.006l11.449-41.952L141.307,8.4l0.48,0.138
	c0.115-0.402,0.172-0.811,0.172-1.237c-0.002-2.505-2.035-4.539-4.541-4.539c-2.093-0.001-3.908,1.42-4.406,3.448l0.486,0.12
	l-0.482-0.132l-11.407,41.949l-0.003,0.011c-0.293,1.283-1.316,2.25-2.607,2.47l0.084,0.493l-0.063-0.496
	c-6.481,0.83-11.944,5.387-13.931,11.619l-0.048,0.151l-0.162,0.51l32.145,7.899l0.154,0.038l0.52,0.128l0.092-0.528L137.297,70.356
	z M105.896,62.335l-0.119,0.486l31.688,7.787l0.088-0.535c0.145-0.887,0.218-1.794,0.218-2.699
	c0.002-5.265-2.425-10.114-6.642-13.277l-0.299,0.4l0.324-0.38c-0.797-0.682-1.248-1.661-1.248-2.697
	c0-0.345,0.049-0.685,0.146-1.012l0.002-0.005l11.449-41.951l-0.482-0.131l0.48,0.137c0.107-0.376,0.16-0.76,0.16-1.157
	c0-2.341-1.902-4.242-4.244-4.243c-1.955-0.001-3.652,1.328-4.119,3.227l0.485,0.119l-0.483-0.131l-11.405,41.946l-0.002,0.01
	c-0.319,1.394-1.435,2.451-2.851,2.692l0.084,0.493l-0.063-0.496c-6.319,0.809-11.65,5.218-13.642,11.261l-0.169,0.513l0.525,0.129
	L105.896,62.335l0.475,0.156c1.869-5.674,6.886-9.823,12.818-10.581l0.01-0.001l0.011-0.002c1.811-0.307,3.251-1.669,3.658-3.455
	l-0.488-0.111l0.483,0.131l11.405-41.943l0.001-0.006c0.357-1.453,1.65-2.465,3.148-2.465c0.896,0,1.703,0.363,2.293,0.951
	c0.588,0.589,0.951,1.397,0.951,2.292c0,0.311-0.039,0.594-0.121,0.882l-0.002,0.002l-11.447,41.949l0.481,0.132l-0.479-0.143
	c-0.125,0.42-0.188,0.856-0.188,1.297c-0.001,1.328,0.581,2.588,1.598,3.457l0.013,0.01l0.013,0.01
	c3.971,2.981,6.24,7.52,6.241,12.477c0,0.851-0.069,1.705-0.205,2.538l0.493,0.081l0.119-0.486l-31.162-7.658L105.896,62.335
	l0.475,0.156L105.896,62.335z"/>
<path fill="#EE3133" d="M109.696,252.954c-3.536,0-6.413-2.877-6.413-6.412c0-0.571,0.075-1.137,0.223-1.683l17.291-71.224
	c0.157-0.552,0.236-1.117,0.236-1.688c0-3.298-2.682-6.041-5.978-6.115l-24.973-1.527c-4.262-0.134-8.253-1.896-11.233-4.964
	c-2.986-3.074-4.631-7.128-4.631-11.414c0-2.041,0.371-4.033,1.103-5.921l30.293-79.741l0.127,0.031l31.599,7.765l-0.015,0.128
	l-5.967,56.796c-0.037,0.277-0.056,0.555-0.056,0.831c0,3.34,2.615,6.027,5.953,6.115l14.506,0.742
	c5.992,0,10.875,4.883,10.875,10.883c0,1.678-0.338,3.192-1.033,4.631l-46.047,98.961
	C114.529,251.459,112.229,252.954,109.696,252.954 M105.798,62.616l-30.201,79.497c-0.718,1.855-1.083,3.811-1.083,5.814
	c0,8.744,6.844,15.809,15.582,16.082l24.972,1.527c3.45,0.077,6.261,2.953,6.261,6.411c0,0.598-0.083,1.19-0.246,1.763
	l-17.29,71.222c-0.142,0.524-0.214,1.064-0.214,1.609c0,3.372,2.744,6.116,6.117,6.116c2.415,0,4.61-1.426,5.591-3.632
	l46.049-98.966c0.676-1.399,1.004-2.873,1.004-4.504c0-5.838-4.75-10.586-10.586-10.586l-14.511-0.744
	c-3.496-0.092-6.237-2.908-6.237-6.41c0-0.289,0.02-0.58,0.059-0.866l5.953-56.663L105.798,62.616z"/>
<path fill="#FFFFFF" d="M109.696,252.954v-0.5c-1.631,0-3.106-0.662-4.179-1.734c-1.072-1.071-1.734-2.548-1.734-4.178
	c0-0.527,0.07-1.049,0.206-1.552l0.002-0.007l17.292-71.229l-0.486-0.118l0.481,0.137c0.169-0.596,0.255-1.208,0.255-1.824
	c-0.003-3.574-2.895-6.532-6.467-6.615l-0.011,0.5l0.031-0.499l-24.981-1.528h-0.007c-4.134-0.13-7.999-1.837-10.89-4.813
	c-2.897-2.983-4.489-6.907-4.49-11.065c0-1.98,0.36-3.91,1.069-5.74l0.001-0.002l30.294-79.743l-0.468-0.177l-0.12,0.485
	l0.128,0.031l31.597,7.765l0.121-0.485l-0.498-0.053l-0.014,0.128l-5.967,56.797l0.497,0.052l-0.495-0.067
	c-0.041,0.299-0.061,0.6-0.061,0.898c-0.002,3.607,2.834,6.521,6.438,6.615l0.015-0.5l-0.026,0.5l14.519,0.742h0.014
	c2.858,0.002,5.449,1.164,7.33,3.045s3.043,4.475,3.045,7.338c-0.002,1.61-0.322,3.041-0.983,4.414l-0.002,0.004l-46.05,98.967
	l-0.002,0.004c-0.946,2.13-3.069,3.509-5.403,3.509V252.954v0.5c2.73,0,5.209-1.611,6.317-4.104l-0.457-0.202l0.454,0.211
	l46.046-98.961l-0.453-0.211l0.449,0.218c0.729-1.505,1.084-3.104,1.084-4.849c-0.002-6.277-5.105-11.381-11.375-11.383v0.5
	l0.024-0.498l-14.512-0.744h-0.007c-3.069-0.084-5.463-2.541-5.465-5.615c0-0.253,0.017-0.509,0.052-0.764l0.001-0.007l5.967-56.804
	l0.014-0.128l0.047-0.434l-32.021-7.869l-0.127-0.031l-0.43-0.106L74.854,141.83l0.001-0.004c-0.754,1.945-1.136,4-1.136,6.102
	c-0.001,4.414,1.696,8.597,4.772,11.763c3.069,3.159,7.186,4.979,11.576,5.115l0.016-0.5l-0.031,0.499l24.983,1.528h0.01
	c3.02,0.064,5.492,2.593,5.489,5.615c0,0.523-0.073,1.043-0.217,1.551l-0.003,0.009l-17.293,71.233l0.486,0.118l-0.482-0.131
	c-0.16,0.589-0.241,1.198-0.241,1.813c0.001,3.813,3.1,6.911,6.913,6.912V252.954z M105.798,62.616l-0.467-0.178L75.13,141.936
	l0.001-0.002c-0.741,1.91-1.117,3.93-1.117,5.994c-0.002,9.013,7.062,16.303,16.066,16.582l0.016-0.5l-0.031,0.499l24.982,1.528
	h0.01c3.173,0.068,5.775,2.729,5.772,5.911c0,0.551-0.076,1.098-0.226,1.626l-0.003,0.01l-17.293,71.231l0.486,0.117l-0.482-0.131
	c-0.154,0.567-0.232,1.151-0.232,1.74c0.001,3.649,2.967,6.615,6.617,6.616c2.613,0,4.986-1.542,6.047-3.929l-0.456-0.203
	l0.453,0.21l46.049-98.965l-0.453-0.211l0.45,0.218c0.709-1.466,1.054-3.023,1.054-4.722c-0.002-6.115-4.972-11.086-11.086-11.086
	v0.5l0.025-0.5l-14.516-0.742l-0.008-0.002c-3.228-0.088-5.748-2.674-5.75-5.91c0-0.267,0.019-0.536,0.055-0.799l0.001-0.007
	l5.999-57.105l-32.072-7.881l-0.157,0.413L105.798,62.616l-0.119,0.486l30.795,7.567l-5.907,56.23l0.497,0.052l-0.495-0.067
	c-0.042,0.308-0.063,0.622-0.063,0.933c-0.002,3.769,2.961,6.813,6.725,6.91l0.013-0.5l-0.024,0.5l14.521,0.744h0.014
	c2.781,0,5.301,1.131,7.129,2.957c1.826,1.828,2.957,4.348,2.957,7.129c-0.002,1.564-0.312,2.953-0.955,4.287v0.002l-46.052,98.973
	l-0.002,0.004c-0.9,2.025-2.917,3.336-5.134,3.336c-1.549,0-2.951-0.629-3.97-1.647c-1.018-1.019-1.646-2.42-1.647-3.969
	c0-0.501,0.066-0.997,0.197-1.478l0.001-0.008l17.292-71.228l-0.486-0.118l0.481,0.137c0.176-0.616,0.265-1.256,0.265-1.899
	c-0.003-3.733-3.024-6.824-6.75-6.911l-0.011,0.5l0.03-0.499l-24.979-1.528h-0.008c-8.47-0.267-15.095-7.104-15.097-15.582
	c0-1.943,0.353-3.837,1.049-5.634l0.002-0.003l30.2-79.497L105.798,62.616l-0.119,0.486L105.798,62.616z"/>
<path fill="#EE3133" d="M145.848,227.011l0.662-0.696c0.166-0.174,16.771-17.555,34.446-33.533
	c23.789-21.506,38.099-30.354,42.528-26.291c0.898,0.822,1.277,1.886,1.125,3.156c-0.747,6.231-14.092,17.702-39.66,34.095
	c-19.021,12.193-38.07,22.7-38.26,22.806L145.848,227.011z M220.641,165.815c-14.894,0-66.662,53.18-73.232,59.993
	c8.413-4.691,75.25-42.382,76.907-56.198c0.142-1.187-0.195-2.137-1.031-2.902C222.622,166.101,221.729,165.815,220.641,165.815"/>
<path fill="#FFFFFF" d="M145.848,227.011l0.361,0.345l0.663-0.695c0.161-0.168,16.761-17.545,34.419-33.509
	c10.01-9.049,18.337-15.851,24.934-20.378c3.297-2.264,6.162-3.958,8.58-5.08c2.416-1.124,4.385-1.667,5.852-1.663
	c1.102,0.003,1.898,0.288,2.49,0.827c0.675,0.626,0.99,1.344,0.996,2.254c0,0.153-0.01,0.312-0.029,0.476
	c-0.163,1.4-1.083,3.23-2.813,5.399c-5.18,6.524-17.465,16.058-36.621,28.333c-19.004,12.184-38.047,22.688-38.231,22.789
	l-0.842,0.465L145.848,227.011l0.361,0.345L145.848,227.011l0.242,0.438l0.84-0.465c0.197-0.107,19.25-10.617,38.289-22.822
	c12.797-8.204,22.539-15.179,29.194-20.899c3.328-2.862,5.886-5.409,7.671-7.654c1.782-2.247,2.811-4.188,3.021-5.902
	c0.023-0.201,0.037-0.399,0.037-0.595c0.004-1.161-0.455-2.205-1.32-2.99c-0.805-0.74-1.893-1.095-3.166-1.091
	c-1.706,0.003-3.781,0.602-6.273,1.757c-7.461,3.47-18.711,12.021-33.762,25.623c-17.693,15.994-34.301,33.381-34.473,33.56
	l-2.902,3.044l2.844-1.564L145.848,227.011z M220.641,165.815v-0.5c-2.008,0.005-4.491,0.871-7.383,2.354
	c-10.091,5.195-25.164,18.135-38.486,30.542c-13.315,12.405-24.846,24.265-27.723,27.25l-2.338,2.423l2.94-1.639
	c4.213-2.351,23.03-12.948,41.017-24.696c8.994-5.874,17.778-12.034,24.436-17.606c3.328-2.785,6.125-5.424,8.158-7.819
	c2.026-2.401,3.312-4.544,3.549-6.453c0.023-0.194,0.035-0.385,0.035-0.572c0.008-1.076-0.42-2.032-1.224-2.76
	c-0.772-0.71-1.812-1.025-2.981-1.023V165.815v0.5c1.004,0.002,1.754,0.258,2.306,0.762c0.62,0.578,0.894,1.192,0.899,2.021
	c0,0.146-0.008,0.295-0.027,0.453c-0.176,1.544-1.342,3.601-3.32,5.925c-3.454,4.076-9.32,9.003-16.273,14.133
	c-20.869,15.399-51.549,32.689-57.061,35.763l0.244,0.437l0.359,0.348c3.281-3.402,17.861-18.396,33.471-32.528
	c7.805-7.066,15.867-13.917,22.893-18.991c3.512-2.537,6.766-4.628,9.586-6.078c2.815-1.453,5.209-2.249,6.924-2.243V165.815z"/>
<path fill="#EE3133" d="M82.695,194.29l-0.734-0.621c-2.034-1.72-49.818-42.263-48.928-53.45c0.077-0.971,0.518-1.707,1.313-2.186
	c9.193-5.549,46.262,52.951,47.836,55.444L82.695,194.29z M35.809,137.943c-0.487,0-0.924,0.111-1.309,0.343
	c-0.718,0.435-1.101,1.073-1.171,1.956c-0.818,10.283,41.839,47.221,48.072,52.559C76.949,185.847,45.917,137.943,35.809,137.943"/>
<path fill="#FFFFFF" d="M82.695,194.29l0.323-0.382l-0.734-0.621c-1.003-0.848-13.233-11.223-25.201-22.827
	c-5.984-5.802-11.903-11.912-16.313-17.28c-2.205-2.683-4.032-5.181-5.298-7.349c-1.27-2.165-1.959-4.011-1.952-5.296
	c0-0.096,0.004-0.188,0.011-0.277c0.077-0.841,0.41-1.386,1.073-1.797c0.332-0.199,0.706-0.298,1.154-0.299
	c1.181-0.012,2.867,0.76,4.813,2.203c3.414,2.515,7.643,6.994,12.051,12.314c13.236,15.965,28.158,39.511,29.137,41.064l0.513,0.812
	L82.695,194.29l0.323-0.382L82.695,194.29l0.423-0.267l-0.513-0.813c-0.755-1.196-9.599-15.156-19.647-28.83
	c-5.025-6.837-10.349-13.602-15.127-18.675c-2.389-2.537-4.641-4.65-6.667-6.145c-2.029-1.489-3.821-2.389-5.406-2.398
	c-0.599-0.001-1.171,0.141-1.671,0.441c-0.925,0.549-1.475,1.475-1.553,2.574c-0.009,0.117-0.014,0.236-0.014,0.357
	c0.008,1.618,0.785,3.557,2.089,5.8c2.289,3.916,6.253,8.738,10.948,13.82c14.083,15.238,34.751,32.77,36.081,33.896l3.212,2.716
	l-1.732-2.743L82.695,194.29z M35.809,137.943v-0.5c-0.562-0.002-1.099,0.131-1.568,0.414c-0.846,0.498-1.343,1.339-1.411,2.345
	c-0.009,0.11-0.013,0.224-0.013,0.339c0.007,1.497,0.704,3.28,1.879,5.344c2.063,3.604,5.646,8.047,9.954,12.787
	c12.921,14.209,32.367,31.032,36.426,34.509l2.572,2.203l-1.826-2.852c-2.229-3.483-11.103-17.204-20.694-30.067
	c-4.797-6.432-9.77-12.648-14.195-17.273c-2.213-2.313-4.288-4.229-6.151-5.581c-1.867-1.347-3.511-2.157-4.973-2.167V137.943v0.5
	c1.065-0.01,2.603,0.676,4.385,1.977c3.129,2.268,7.03,6.325,11.145,11.217c12.358,14.684,26.726,36.88,29.641,41.435l0.421-0.271
	l0.325-0.38c-3.081-2.639-15.097-13.029-26.331-24.083c-5.617-5.526-11.039-11.221-15.044-16.182
	c-2.002-2.48-3.65-4.778-4.787-6.768c-1.141-1.985-1.754-3.675-1.747-4.848l0.01-0.26c0.073-0.76,0.341-1.197,0.931-1.567
	c0.301-0.181,0.638-0.27,1.051-0.271V137.943z"/>
</svg>
