<?xml version="1.0" encoding="utf-8"?>
<!-- Generator: Adobe Illustrator 16.0.0, SVG Export Plug-In . SVG Version: 6.00 Build 0)  -->
<!DOCTYPE svg PUBLIC "-//W3C//DTD SVG 1.1//EN" "http://www.w3.org/Graphics/SVG/1.1/DTD/svg11.dtd">
<svg version="1.1" id="Layer_1" xmlns="http://www.w3.org/2000/svg" xmlns:xlink="http://www.w3.org/1999/xlink" x="0px" y="0px"
	 width="100px" height="100px" viewBox="0 0 100 100" enable-background="new 0 0 100 100" xml:space="preserve">
<path fill="#32A952" d="M67.051,28.633c0.069-0.216,0.122-0.44,0.154-0.672c0.182-1.291-0.277-2.523-1.135-3.377
	c-0.179-0.202-0.271-0.478-0.23-0.765c0.013-0.094,0.04-0.183,0.077-0.264l4.211-9.796c0.035-0.079,0.06-0.162,0.072-0.252
	c0.073-0.522-0.29-1.004-0.813-1.078c-0.443-0.063-0.859,0.192-1.019,0.59l-4.199,9.793c-0.137,0.357-0.478,0.603-0.863,0.614
	c-1.563-0.02-2.975,0.883-3.634,2.256L67.051,28.633z"/>
<path fill="#EF3B35" d="M59.673,25.681L49.611,43.981c-0.233,0.418-0.395,0.886-0.466,1.388c-0.3,2.136,1.154,4.114,3.264,4.478
	l6.011,1.223c0.822,0.135,1.39,0.901,1.273,1.73c-0.021,0.145-0.061,0.282-0.117,0.41l-6.629,16.705
	c-0.053,0.122-0.09,0.254-0.109,0.392c-0.118,0.84,0.467,1.617,1.307,1.734c0.621,0.088,1.206-0.208,1.518-0.707l14.56-22.459
	c0.213-0.319,0.346-0.669,0.402-1.075c0.202-1.439-0.801-2.771-2.239-2.973l-3.497-0.675c-0.817-0.137-1.383-0.902-1.267-1.729
	c0.01-0.069,0.024-0.138,0.043-0.204l3.387-13.588L59.673,25.681z"/>
<path fill="#70C167" d="M65.009,25.869c-0.072,0.518-0.55,0.878-1.067,0.805s-0.878-0.551-0.805-1.068s0.551-0.877,1.067-0.805
	C64.722,24.874,65.082,25.352,65.009,25.869"/>
<path fill="#F15D50" d="M52.208,46.565L52.208,46.565c-0.476-0.23-0.676-0.809-0.445-1.285l5.519-11.375
	c0.23-0.476,0.81-0.676,1.284-0.445c0.477,0.23,0.677,0.809,0.446,1.285L53.493,46.12C53.263,46.596,52.685,46.796,52.208,46.565"/>
<path fill="#F15D50" d="M60.746,59.05L60.746,59.05c-0.325-0.19-0.747-0.08-0.937,0.246l-2.878,4.927
	c-0.19,0.325-0.08,0.746,0.246,0.937c0.325,0.19,0.747,0.079,0.937-0.245l2.878-4.928C61.183,59.661,61.071,59.239,60.746,59.05"/>
<path fill="#EF3B35" d="M64.011,66.894c0,0,18.457-14.606,20.683-11.905C87.224,58.06,64.011,66.894,64.011,66.894"/>
<path fill="#EF3B35" d="M49.456,56.711c0,0-7.26-16.109-9.676-15.077C37.032,42.808,49.456,56.711,49.456,56.711"/>
<path fill="#FFFFFF" d="M16.903,77.076v-2.686h0.894c0.627,0,1.122-0.149,1.483-0.447c0.36-0.299,0.431-0.777,0.211-1.436
	l-4.377-12.474h2.666c0.568,0,1.067,0.376,1.224,0.921l2.277,7.928l2.212-7.72c0.188-0.753,0.69-1.129,1.506-1.129h2.259
	l-4.801,14.262c-0.376,1.035-0.847,1.772-1.412,2.213c-0.565,0.376-1.491,0.564-2.777,0.564
	C18.173,77.073,16.997,77.076,16.903,77.076"/>
<path fill="#FFFFFF" d="M36.529,68.671c0.354-0.02,1.92,0.023,2.355,0.023c-0.346,1.318-1.005,2.322-1.978,3.013
	c-0.973,0.723-2.196,1.083-3.671,1.083c-1.789,0-3.186-0.581-4.189-1.742c-1.005-1.13-1.506-2.745-1.506-4.848
	c0-2.009,0.486-3.577,1.459-4.707c1.004-1.161,2.401-1.742,4.189-1.742c1.883,0,3.342,0.565,4.378,1.694
	c0.433,0.474,0.751,1.065,0.978,1.758c0.637,1.941-0.823,3.938-2.867,3.938H32.59c-1.111,0-1.765,1.331-1.014,2.151
	c0.004,0.004,0.008,0.009,0.013,0.014c0.87,0.931,2.46,1.035,3.456,0.22c0.239-0.196,0.44-0.438,0.691-0.619
	C35.958,68.746,36.237,68.687,36.529,68.671 M30.883,65.023h3.281c0.967,0,1.521-1.154,0.873-1.87
	c-0.004-0.005-0.008-0.009-0.012-0.013c-0.408-0.439-0.988-0.659-1.741-0.659c-0.691,0-1.255,0.22-1.695,0.659
	C31.148,63.58,30.914,64.207,30.883,65.023"/>
<path fill="#FFFFFF" d="M39.308,68.412h2.516c0.353,0,0.675,0.223,0.779,0.561c0.111,0.355,0.314,0.64,0.612,0.852
	c0.471,0.314,1.098,0.471,1.883,0.471c0.565,0,1.051-0.109,1.459-0.329c0.377-0.22,0.565-0.518,0.565-0.895
	c0-0.565-0.659-0.988-1.977-1.271c-0.565-0.095-0.989-0.188-1.271-0.283c-1.664-0.407-2.777-0.894-3.342-1.459
	c-0.628-0.564-0.941-1.317-0.941-2.26c0-1.191,0.454-2.181,1.365-2.965c0.941-0.722,2.166-1.083,3.671-1.083
	c1.632,0,2.934,0.361,3.907,1.083c0.91,0.784,1.396,1.805,1.458,3.06h-2.023c-0.333,0-0.66-0.091-0.927-0.293
	c-0.267-0.201-0.413-0.512-0.666-0.732c-0.425-0.37-0.985-0.587-1.55-0.587c-0.512-0.001-1.112,0.023-1.564,0.294
	c-0.42,0.252-0.567,0.86-0.241,1.24c0.188,0.219,0.463,0.341,0.733,0.44c0.96,0.357,1.978,0.532,2.971,0.787
	c0.964,0.247,1.936,0.581,2.728,1.204c0.689,0.541,0.964,1.459,0.964,2.306c0,1.382-0.502,2.448-1.505,3.202
	c-0.942,0.689-2.354,1.035-4.237,1.035c-1.788,0-3.122-0.36-4-1.083c-0.911-0.722-1.365-1.772-1.365-3.154V68.412z"/>
<path fill="#FFFFFF" d="M32.479,87.343h-3.248V80v-0.659c0-0.753-0.228-1.302-0.683-1.647c-0.455-0.345-0.965-0.518-1.53-0.518
	s-1.067,0.173-1.506,0.518c-0.44,0.346-0.659,0.895-0.659,1.647v6.697c0,0.72-0.584,1.305-1.306,1.305H21.56V80
	c0-2.134,0.557-3.562,1.671-4.284c1.113-0.721,2.345-1.112,3.695-1.176c0.721,0,1.428,0.078,2.118,0.235
	c0.69,0.157,1.318,0.471,1.883,0.94c0.47-0.407,1.027-0.697,1.67-0.87c0.643-0.172,1.31-0.274,2-0.306
	c1.381,0,2.652,0.361,3.813,1.082c1.161,0.723,1.742,2.182,1.742,4.378v7.343h-1.647c-0.471,0-0.855-0.148-1.153-0.447
	c-0.299-0.298-0.447-0.683-0.447-1.152v-6.402c0-0.753-0.228-1.302-0.682-1.647c-0.456-0.345-0.965-0.518-1.53-0.518
	c-0.564,0-1.075,0.173-1.53,0.518c-0.455,0.346-0.683,0.895-0.683,1.647V80V87.343z"/>
<path fill="#FFFFFF" d="M63.734,71.15h1.694c0.439,0,0.816,0.149,1.13,0.447c0.313,0.299,0.471,0.668,0.471,1.106v14.639h-1.656
	c-0.904,0-1.639-0.733-1.639-1.639V71.15z"/>
<path fill="#FFFFFF" d="M49.75,83.46c0.354-0.021,1.92,0.023,2.355,0.023c-0.346,1.317-1.005,2.322-1.978,3.012
	c-0.973,0.723-2.196,1.083-3.671,1.083c-1.789,0-3.185-0.58-4.189-1.741c-1.004-1.13-1.506-2.745-1.506-4.849
	c0-2.008,0.486-3.577,1.459-4.707c1.004-1.16,2.401-1.741,4.189-1.741c1.883,0,3.342,0.564,4.378,1.694
	c0.433,0.474,0.751,1.065,0.978,1.757c0.637,1.941-0.824,3.938-2.867,3.938H45.81c-1.111,0-1.765,1.332-1.014,2.151
	c0.004,0.005,0.009,0.01,0.013,0.014c0.87,0.931,2.46,1.036,3.456,0.22c0.239-0.196,0.439-0.438,0.69-0.618
	C49.178,83.535,49.457,83.476,49.75,83.46 M44.103,79.812h3.281c0.966,0,1.521-1.153,0.872-1.87
	c-0.003-0.005-0.007-0.009-0.011-0.013c-0.408-0.438-0.989-0.659-1.741-0.659c-0.691,0-1.256,0.221-1.695,0.659
	C44.369,78.368,44.133,78.996,44.103,79.812"/>
<path fill="#FFFFFF" d="M60.815,86.825c-0.658,0.346-1.356,0.557-2.094,0.636c-0.737,0.077-1.389,0.117-1.954,0.117
	c-1.129,0-2.118-0.306-2.965-0.918c-0.848-0.611-1.271-1.623-1.271-3.036c0-1.318,0.385-2.259,1.154-2.823
	c0.768-0.565,1.749-0.942,2.941-1.131c0.156,0,0.345-0.023,0.564-0.07s0.471-0.086,0.754-0.117c1.38-0.188,2.07-0.596,2.07-1.224
	c0-0.472-0.243-0.777-0.729-0.919c-0.487-0.141-0.935-0.211-1.341-0.211c-0.439,0-0.832,0.063-1.178,0.188
	c-0.346,0.126-0.597,0.361-0.753,0.706h-3.153c0.125-0.972,0.565-1.772,1.317-2.4c0.848-0.721,2.055-1.082,3.625-1.082
	c1.757,0,3.075,0.299,3.954,0.894c0.909,0.628,1.365,1.507,1.365,2.637v4.283c0,1.256-0.229,2.235-0.683,2.942
	C61.985,86.002,61.443,86.512,60.815,86.825 M60.063,81.036c-0.439,0.22-1.052,0.423-1.836,0.611l-1.083,0.235
	c-0.565,0.157-0.974,0.361-1.224,0.611c-0.22,0.346-0.329,0.691-0.329,1.036c0,0.471,0.141,0.847,0.423,1.13
	c0.282,0.251,0.69,0.377,1.224,0.377c0.879,0,1.569-0.252,2.071-0.754c0.502-0.501,0.754-1.191,0.754-2.071V81.036z"/>
<rect y="-14.706" fill="none" width="100" height="129.412"/>
</svg>
