<?xml version="1.0" encoding="utf-8"?>
<!-- Generator: Adobe Illustrator 16.0.0, SVG Export Plug-In . SVG Version: 6.00 Build 0)  -->
<!DOCTYPE svg PUBLIC "-//W3C//DTD SVG 1.1//EN" "http://www.w3.org/Graphics/SVG/1.1/DTD/svg11.dtd">
<svg version="1.1" id="Layer_1" xmlns="http://www.w3.org/2000/svg" xmlns:xlink="http://www.w3.org/1999/xlink" x="0px" y="0px"
	 width="85px" height="85px" viewBox="0 0 85 85" enable-background="new 0 0 85 85" xml:space="preserve">
<g>
	<defs>
		<rect id="SVGID_1_" x="-6.326" y="-22" width="94.576" height="127.097"/>
	</defs>
	<clipPath id="SVGID_2_">
		<use xlink:href="#SVGID_1_"  overflow="visible"/>
	</clipPath>
	<path clip-path="url(#SVGID_2_)" fill="#32A952" d="M57.089,20.563c0.065-0.21,0.114-0.431,0.146-0.661
		c0.172-1.265-0.264-2.477-1.074-3.314c-0.168-0.201-0.258-0.472-0.218-0.752c0.012-0.094,0.039-0.18,0.074-0.259l3.982-9.624
		c0.032-0.077,0.055-0.156,0.066-0.245c0.07-0.513-0.272-0.988-0.769-1.059c-0.417-0.062-0.811,0.186-0.962,0.578l-3.972,9.617
		c-0.13,0.351-0.452,0.593-0.814,0.602c-1.479-0.018-2.815,0.87-3.439,2.217L57.089,20.563z"/>
	<path clip-path="url(#SVGID_2_)" fill="#EF3B35" d="M50.109,17.665l-9.517,17.973c-0.22,0.41-0.372,0.87-0.439,1.362
		c-0.285,2.099,1.09,4.042,3.086,4.399l5.686,1.199c0.777,0.134,1.313,0.888,1.204,1.699c-0.021,0.145-0.057,0.28-0.111,0.404
		l-6.271,16.403c-0.048,0.122-0.086,0.251-0.104,0.387c-0.109,0.826,0.441,1.59,1.238,1.705c0.585,0.085,1.14-0.206,1.435-0.693
		l13.769-22.06c0.202-0.313,0.328-0.657,0.382-1.056c0.191-1.412-0.757-2.718-2.12-2.918l-3.307-0.664
		c-0.774-0.133-1.306-0.885-1.193-1.698c0.007-0.068,0.019-0.132,0.038-0.2l3.203-13.344L50.109,17.665z"/>
	<path clip-path="url(#SVGID_2_)" fill="#70C167" d="M55.157,17.85c-0.07,0.507-0.521,0.861-1.01,0.79
		c-0.488-0.07-0.831-0.54-0.762-1.049c0.068-0.507,0.521-0.861,1.012-0.791C54.886,16.875,55.224,17.343,55.157,17.85"/>
	<path clip-path="url(#SVGID_2_)" fill="#F15D50" d="M43.05,38.176L43.05,38.176c-0.45-0.227-0.641-0.796-0.423-1.262l5.22-11.171
		c0.22-0.469,0.768-0.664,1.217-0.439c0.449,0.227,0.64,0.796,0.422,1.262L44.265,37.74C44.045,38.206,43.501,38.403,43.05,38.176"
		/>
	<path clip-path="url(#SVGID_2_)" fill="#F15D50" d="M51.126,50.436L51.126,50.436c-0.307-0.187-0.707-0.076-0.888,0.245
		l-2.721,4.838c-0.181,0.318-0.076,0.733,0.234,0.92c0.308,0.186,0.704,0.08,0.884-0.244l2.722-4.839
		C51.537,51.04,51.433,50.624,51.126,50.436"/>
	<path clip-path="url(#SVGID_2_)" fill="#EF3B35" d="M54.213,58.139c0,0,17.453-14.344,19.561-11.689
		C76.166,49.466,54.213,58.139,54.213,58.139"/>
	<path clip-path="url(#SVGID_2_)" fill="#EF3B35" d="M40.447,48.139c0,0-6.865-15.821-9.151-14.807
		C28.698,34.485,40.447,48.139,40.447,48.139"/>
	<path clip-path="url(#SVGID_2_)" fill="#640812" d="M9.659,68.14v-2.639h0.848c0.592,0,1.06-0.144,1.402-0.436
		c0.341-0.295,0.407-0.765,0.2-1.413l-4.14-12.25h2.521c0.537,0,1.008,0.371,1.157,0.905l2.154,7.786l2.093-7.582
		c0.177-0.738,0.652-1.109,1.425-1.109h2.136L14.913,65.41c-0.355,1.017-0.801,1.742-1.335,2.173
		c-0.534,0.372-1.41,0.554-2.627,0.554C10.862,68.137,9.749,68.14,9.659,68.14"/>
	<path clip-path="url(#SVGID_2_)" fill="#640812" d="M28.222,59.885c0.336-0.018,1.816,0.024,2.228,0.024
		c-0.326,1.293-0.95,2.281-1.869,2.959c-0.92,0.708-2.077,1.062-3.472,1.062c-1.692,0-3.013-0.569-3.962-1.709
		c-0.951-1.109-1.425-2.695-1.425-4.763c0-1.97,0.459-3.512,1.381-4.619c0.949-1.142,2.27-1.713,3.961-1.713
		c1.781,0,3.161,0.554,4.139,1.665c0.411,0.463,0.712,1.047,0.926,1.722c0.603,1.908-0.778,3.872-2.709,3.872h-2.921
		c-1.051,0-1.671,1.309-0.958,2.11c0.003,0.009,0.006,0.013,0.01,0.015c0.823,0.914,2.328,1.018,3.27,0.215
		c0.225-0.191,0.416-0.43,0.651-0.606C27.682,59.959,27.944,59.902,28.222,59.885 M22.881,56.303h3.103
		c0.916,0,1.439-1.132,0.826-1.837c-0.003-0.004-0.008-0.006-0.01-0.012c-0.387-0.431-0.935-0.646-1.647-0.646
		c-0.653,0-1.188,0.216-1.604,0.646C23.133,54.887,22.911,55.501,22.881,56.303"/>
	<path clip-path="url(#SVGID_2_)" fill="#640812" d="M30.85,59.631h2.379c0.333,0,0.637,0.222,0.737,0.549
		c0.104,0.351,0.296,0.631,0.579,0.841c0.444,0.306,1.038,0.459,1.779,0.459c0.536,0,0.994-0.105,1.38-0.32
		c0.357-0.216,0.536-0.511,0.536-0.88c0-0.554-0.624-0.973-1.871-1.25c-0.534-0.091-0.935-0.182-1.201-0.274
		c-1.573-0.4-2.627-0.878-3.161-1.436c-0.594-0.554-0.891-1.294-0.891-2.22c0-1.167,0.431-2.141,1.29-2.91
		c0.892-0.711,2.049-1.063,3.473-1.063c1.542,0,2.774,0.353,3.694,1.063c0.862,0.77,1.321,1.771,1.381,3.004H39.04
		c-0.313,0-0.623-0.088-0.875-0.286c-0.251-0.196-0.392-0.504-0.63-0.722c-0.401-0.36-0.932-0.574-1.466-0.574
		c-0.483,0-1.051,0.022-1.478,0.289c-0.397,0.247-0.539,0.843-0.229,1.217c0.179,0.215,0.438,0.333,0.693,0.434
		c0.91,0.352,1.871,0.522,2.81,0.772c0.913,0.241,1.831,0.568,2.58,1.182c0.652,0.531,0.913,1.434,0.913,2.265
		c0,1.359-0.477,2.406-1.425,3.144c-0.891,0.681-2.227,1.017-4.005,1.017c-1.692,0-2.954-0.354-3.786-1.062
		c-0.861-0.707-1.29-1.739-1.29-3.099V59.631z"/>
	<path clip-path="url(#SVGID_2_)" fill="#640812" d="M24.392,78.226h-3.07v-7.214v-0.646c0-0.74-0.217-1.279-0.646-1.618
		c-0.431-0.34-0.912-0.511-1.448-0.511c-0.533,0-1.01,0.171-1.424,0.511c-0.416,0.339-0.624,0.878-0.624,1.618v6.574
		c0,0.711-0.552,1.285-1.234,1.285h-1.883v-7.214c0-2.096,0.528-3.496,1.58-4.204c1.055-0.711,2.219-1.098,3.496-1.156
		c0.682,0,1.35,0.076,2.002,0.229c0.653,0.153,1.249,0.463,1.782,0.927c0.445-0.404,0.971-0.688,1.58-0.858
		c0.607-0.167,1.239-0.268,1.892-0.298c1.306,0,2.507,0.354,3.606,1.062c1.098,0.708,1.648,2.144,1.648,4.299v7.214h-1.56
		c-0.445,0-0.808-0.146-1.089-0.441c-0.283-0.292-0.423-0.669-0.423-1.132v-6.286c0-0.74-0.215-1.279-0.646-1.618
		c-0.431-0.34-0.913-0.511-1.447-0.511c-0.534,0-1.016,0.171-1.446,0.511c-0.431,0.339-0.646,0.878-0.646,1.618v0.646V78.226z"/>
	<path clip-path="url(#SVGID_2_)" fill="#640812" d="M51.191,77.714c-0.623,0.341-1.281,0.549-1.981,0.627
		c-0.698,0.077-1.313,0.115-1.849,0.115c-1.068,0-2.002-0.301-2.803-0.902c-0.802-0.601-1.202-1.595-1.202-2.98
		c0-1.294,0.363-2.221,1.088-2.774c0.729-0.554,1.656-0.926,2.786-1.111c0.146,0,0.326-0.021,0.531-0.068
		c0.209-0.043,0.445-0.082,0.715-0.115c1.305-0.185,1.956-0.586,1.956-1.202c0-0.463-0.229-0.764-0.688-0.901
		c-0.46-0.14-0.883-0.21-1.268-0.21c-0.415,0-0.788,0.064-1.115,0.186c-0.325,0.123-0.563,0.356-0.71,0.693H43.67
		c0.116-0.955,0.531-1.74,1.247-2.356c0.8-0.707,1.942-1.062,3.426-1.062c1.661,0,2.908,0.289,3.738,0.879
		c0.861,0.616,1.293,1.478,1.293,2.585v4.208c0,1.232-0.217,2.196-0.647,2.89C52.296,76.909,51.784,77.407,51.191,77.714
		 M50.479,72.029c-0.415,0.218-0.995,0.416-1.734,0.602l-1.023,0.232c-0.539,0.153-0.923,0.354-1.157,0.599
		c-0.208,0.342-0.313,0.679-0.313,1.021c0,0.46,0.134,0.831,0.4,1.108c0.266,0.245,0.651,0.368,1.156,0.368
		c0.829,0,1.482-0.244,1.959-0.739c0.475-0.493,0.712-1.172,0.712-2.035V72.029z"/>
	<path clip-path="url(#SVGID_2_)" fill="#640812" d="M53.952,62.319h1.601c0.415,0,0.772,0.148,1.07,0.442
		c0.295,0.292,0.445,0.654,0.445,1.086v14.378h-1.566c-0.857,0-1.55-0.722-1.55-1.612V62.319z"/>
	<path clip-path="url(#SVGID_2_)" fill="#640812" d="M40.724,74.412c0.334-0.021,1.816,0.022,2.227,0.022
		c-0.327,1.295-0.95,2.279-1.869,2.958c-0.919,0.71-2.077,1.063-3.472,1.063c-1.692,0-3.013-0.571-3.962-1.713
		c-0.951-1.108-1.426-2.695-1.426-4.761c0-1.973,0.46-3.512,1.381-4.623c0.949-1.139,2.271-1.708,3.961-1.708
		c1.781,0,3.16,0.555,4.141,1.663c0.411,0.466,0.71,1.044,0.923,1.725c0.604,1.907-0.777,3.869-2.708,3.869h-2.922
		c-1.05,0-1.67,1.306-0.959,2.113c0.004,0.004,0.009,0.009,0.012,0.015c0.824,0.911,2.328,1.014,3.268,0.213
		c0.226-0.188,0.416-0.428,0.653-0.607C40.185,74.485,40.448,74.427,40.724,74.412 M35.384,70.826h3.102
		c0.916,0,1.439-1.133,0.825-1.837c-0.004-0.003-0.007-0.006-0.01-0.012c-0.386-0.434-0.936-0.646-1.646-0.646
		c-0.653,0-1.188,0.212-1.604,0.646C35.635,69.411,35.414,70.027,35.384,70.826"/>
	<path clip-path="url(#SVGID_2_)" fill="#640812" d="M51.191,77.714c-0.623,0.341-1.281,0.549-1.981,0.627
		c-0.698,0.077-1.313,0.115-1.849,0.115c-1.068,0-2.002-0.301-2.803-0.902c-0.802-0.601-1.202-1.595-1.202-2.98
		c0-1.294,0.363-2.221,1.088-2.774c0.729-0.554,1.656-0.926,2.786-1.111c0.146,0,0.326-0.021,0.531-0.068
		c0.209-0.043,0.445-0.082,0.715-0.115c1.305-0.185,1.956-0.586,1.956-1.202c0-0.463-0.229-0.764-0.688-0.901
		c-0.46-0.14-0.883-0.21-1.268-0.21c-0.415,0-0.788,0.064-1.115,0.186c-0.325,0.123-0.563,0.356-0.71,0.693H43.67
		c0.116-0.955,0.531-1.74,1.247-2.356c0.8-0.707,1.942-1.062,3.426-1.062c1.661,0,2.908,0.289,3.738,0.879
		c0.861,0.616,1.293,1.478,1.293,2.585v4.208c0,1.232-0.217,2.196-0.647,2.89C52.296,76.909,51.784,77.407,51.191,77.714
		 M50.479,72.029c-0.415,0.218-0.995,0.416-1.734,0.602l-1.023,0.232c-0.539,0.153-0.923,0.354-1.157,0.599
		c-0.208,0.342-0.313,0.679-0.313,1.021c0,0.46,0.134,0.831,0.4,1.108c0.266,0.245,0.651,0.368,1.156,0.368
		c0.829,0,1.482-0.244,1.959-0.739c0.475-0.493,0.712-1.172,0.712-2.035V72.029z"/>
</g>
</svg>
