<?xml version="1.0" encoding="utf-8"?>
<!-- Generator: Adobe Illustrator 16.0.0, SVG Export Plug-In . SVG Version: 6.00 Build 0)  -->
<!DOCTYPE svg PUBLIC "-//W3C//DTD SVG 1.1//EN" "http://www.w3.org/Graphics/SVG/1.1/DTD/svg11.dtd">
<svg version="1.1" id="Layer_1" xmlns="http://www.w3.org/2000/svg" xmlns:xlink="http://www.w3.org/1999/xlink" x="0px" y="0px"
	 width="85px" height="85px" viewBox="0 0 85 85" enable-background="new 0 0 85 85" xml:space="preserve">
<linearGradient id="SVGID_1_" gradientUnits="userSpaceOnUse" x1="14.1499" y1="79.1309" x2="18.3281" y2="79.1309">
	<stop  offset="0" style="stop-color:#FFFFFF"/>
	<stop  offset="1" style="stop-color:#000000"/>
</linearGradient>
<path fill="url(#SVGID_1_)" d="M18.41,78.86v0.54h-3.53c-0.34-0.17-0.58-0.32-0.73-0.471V78.86H18.41z"/>
<g>
	<g>
		<g>
			<defs>
				<rect id="SVGID_2_" x="-6.326" y="-24" width="94.576" height="127.098"/>
			</defs>
			<clipPath id="SVGID_3_">
				<use xlink:href="#SVGID_2_"  overflow="visible"/>
			</clipPath>
			<path clip-path="url(#SVGID_3_)" fill="#32A952" d="M57.089,18.563c0.065-0.21,0.114-0.431,0.146-0.661
				c0.174-1.265-0.264-2.477-1.072-3.314c-0.168-0.201-0.26-0.472-0.219-0.752c0.013-0.094,0.039-0.18,0.074-0.259l3.981-9.624
				c0.032-0.077,0.056-0.156,0.065-0.245c0.069-0.513-0.271-0.988-0.77-1.059c-0.417-0.062-0.813,0.186-0.962,0.578l-3.974,9.617
				c-0.129,0.351-0.45,0.593-0.813,0.602c-1.479-0.018-2.814,0.87-3.438,2.217L57.089,18.563z"/>
		</g>
	</g>
	<g>
		<g>
			<defs>
				<rect id="SVGID_4_" x="-6.326" y="-24" width="94.576" height="127.098"/>
			</defs>
			<clipPath id="SVGID_5_">
				<use xlink:href="#SVGID_4_"  overflow="visible"/>
			</clipPath>
			<path clip-path="url(#SVGID_5_)" fill="#EF3B35" d="M50.109,15.665l-9.519,17.973c-0.22,0.41-0.372,0.87-0.439,1.362
				c-0.285,2.099,1.09,4.042,3.084,4.399l5.688,1.199c0.777,0.134,1.313,0.888,1.204,1.699c-0.021,0.145-0.058,0.28-0.11,0.404
				l-6.271,16.402c-0.048,0.123-0.086,0.252-0.104,0.388c-0.108,0.825,0.44,1.59,1.237,1.704c0.585,0.086,1.142-0.205,1.437-0.692
				l13.769-22.06c0.202-0.313,0.328-0.657,0.382-1.056c0.191-1.412-0.757-2.718-2.119-2.918l-3.308-0.664
				c-0.774-0.133-1.306-0.885-1.192-1.698c0.006-0.068,0.02-0.132,0.037-0.2l3.203-13.344L50.109,15.665z"/>
		</g>
	</g>
	<g>
		<g>
			<defs>
				<rect id="SVGID_6_" x="-6.326" y="-24" width="94.576" height="127.098"/>
			</defs>
			<clipPath id="SVGID_7_">
				<use xlink:href="#SVGID_6_"  overflow="visible"/>
			</clipPath>
			<path clip-path="url(#SVGID_7_)" fill="#70C167" d="M55.157,15.85c-0.07,0.507-0.521,0.861-1.011,0.79
				c-0.487-0.07-0.83-0.54-0.763-1.049c0.068-0.507,0.521-0.861,1.013-0.791C54.887,14.875,55.225,15.343,55.157,15.85"/>
		</g>
	</g>
	<g>
		<g>
			<defs>
				<rect id="SVGID_8_" x="-6.326" y="-24" width="94.576" height="127.098"/>
			</defs>
			<clipPath id="SVGID_9_">
				<use xlink:href="#SVGID_8_"  overflow="visible"/>
			</clipPath>
			<path clip-path="url(#SVGID_9_)" fill="#F15D50" d="M43.05,36.176L43.05,36.176c-0.45-0.227-0.641-0.796-0.423-1.262
				l5.221-11.171c0.219-0.469,0.769-0.664,1.217-0.439c0.449,0.227,0.641,0.796,0.422,1.262L44.266,35.74
				C44.045,36.206,43.501,36.403,43.05,36.176"/>
		</g>
	</g>
	<g>
		<g>
			<defs>
				<rect id="SVGID_10_" x="-6.326" y="-24" width="94.576" height="127.098"/>
			</defs>
			<clipPath id="SVGID_11_">
				<use xlink:href="#SVGID_10_"  overflow="visible"/>
			</clipPath>
			<path clip-path="url(#SVGID_11_)" fill="#F15D50" d="M51.126,48.436L51.126,48.436c-0.308-0.187-0.707-0.076-0.888,0.246
				l-2.721,4.838c-0.183,0.317-0.076,0.732,0.232,0.92c0.309,0.187,0.704,0.08,0.884-0.244l2.724-4.84
				C51.537,49.04,51.434,48.624,51.126,48.436"/>
		</g>
	</g>
	<g>
		<g>
			<defs>
				<rect id="SVGID_12_" x="-6.326" y="-24" width="94.576" height="127.098"/>
			</defs>
			<clipPath id="SVGID_13_">
				<use xlink:href="#SVGID_12_"  overflow="visible"/>
			</clipPath>
			<path clip-path="url(#SVGID_13_)" fill="#EF3B35" d="M54.213,56.139c0,0,17.453-14.344,19.561-11.688
				C76.166,47.466,54.213,56.139,54.213,56.139"/>
		</g>
	</g>
	<g>
		<g>
			<defs>
				<rect id="SVGID_14_" x="-6.326" y="-24" width="94.576" height="127.098"/>
			</defs>
			<clipPath id="SVGID_15_">
				<use xlink:href="#SVGID_14_"  overflow="visible"/>
			</clipPath>
			<path clip-path="url(#SVGID_15_)" fill="#EF3B35" d="M40.447,46.139c0,0-6.865-15.821-9.151-14.807
				C28.698,32.485,40.447,46.139,40.447,46.139"/>
		</g>
	</g>
	<g>
		<g>
			<defs>
				<rect id="SVGID_16_" x="-6.326" y="-24" width="94.576" height="127.098"/>
			</defs>
			<clipPath id="SVGID_17_">
				<use xlink:href="#SVGID_16_"  overflow="visible"/>
			</clipPath>
			<path clip-path="url(#SVGID_17_)" fill="#640812" d="M9.659,66.141v-2.64h0.848c0.592,0,1.06-0.144,1.402-0.437
				c0.341-0.295,0.407-0.766,0.2-1.412l-4.14-12.25h2.521c0.537,0,1.008,0.371,1.157,0.904l2.154,7.785l2.093-7.582
				c0.177-0.736,0.652-1.107,1.425-1.107h2.136L14.913,63.41c-0.355,1.017-0.801,1.742-1.335,2.173
				c-0.534,0.372-1.41,0.554-2.627,0.554C10.862,66.137,9.749,66.141,9.659,66.141"/>
		</g>
	</g>
	<g>
		<g>
			<defs>
				<rect id="SVGID_18_" x="-6.326" y="-24" width="94.576" height="127.098"/>
			</defs>
			<clipPath id="SVGID_19_">
				<use xlink:href="#SVGID_18_"  overflow="visible"/>
			</clipPath>
			<path clip-path="url(#SVGID_19_)" fill="#640812" d="M28.222,57.885c0.336-0.018,1.816,0.024,2.228,0.024
				c-0.326,1.293-0.95,2.28-1.869,2.959c-0.92,0.708-2.077,1.062-3.472,1.062c-1.692,0-3.013-0.568-3.962-1.709
				c-0.951-1.109-1.425-2.695-1.425-4.763c0-1.97,0.459-3.513,1.381-4.619c0.949-1.142,2.27-1.713,3.961-1.713
				c1.781,0,3.161,0.554,4.139,1.665c0.411,0.463,0.712,1.047,0.926,1.723c0.603,1.907-0.778,3.871-2.709,3.871h-2.921
				c-1.051,0-1.671,1.309-0.958,2.11c0.003,0.009,0.006,0.013,0.01,0.015c0.823,0.914,2.328,1.018,3.27,0.215
				c0.225-0.189,0.416-0.43,0.651-0.604C27.682,57.959,27.944,57.902,28.222,57.885 M22.881,54.303h3.103
				c0.916,0,1.439-1.132,0.826-1.837c-0.003-0.004-0.008-0.006-0.01-0.012c-0.387-0.431-0.935-0.646-1.647-0.646
				c-0.653,0-1.188,0.215-1.604,0.646C23.133,52.887,22.911,53.501,22.881,54.303"/>
		</g>
	</g>
	<g>
		<g>
			<defs>
				<rect id="SVGID_20_" x="-6.326" y="-24" width="94.576" height="127.098"/>
			</defs>
			<clipPath id="SVGID_21_">
				<use xlink:href="#SVGID_20_"  overflow="visible"/>
			</clipPath>
			<path clip-path="url(#SVGID_21_)" fill="#640812" d="M30.85,57.631h2.379c0.333,0,0.637,0.223,0.737,0.549
				c0.104,0.353,0.296,0.631,0.579,0.842c0.444,0.307,1.038,0.459,1.779,0.459c0.536,0,0.994-0.104,1.38-0.319
				c0.357-0.218,0.536-0.513,0.536-0.882c0-0.553-0.624-0.973-1.871-1.25c-0.534-0.09-0.935-0.182-1.201-0.272
				c-1.573-0.399-2.627-0.878-3.161-1.437c-0.594-0.555-0.891-1.295-0.891-2.221c0-1.166,0.431-2.141,1.29-2.91
				c0.892-0.711,2.049-1.063,3.473-1.063c1.542,0,2.774,0.354,3.694,1.063c0.862,0.771,1.321,1.771,1.381,3.004H39.04
				c-0.313,0-0.623-0.088-0.875-0.284c-0.251-0.196-0.392-0.505-0.63-0.724c-0.401-0.358-0.932-0.574-1.466-0.574
				c-0.483,0-1.051,0.022-1.478,0.289c-0.397,0.248-0.539,0.845-0.229,1.219c0.179,0.215,0.438,0.333,0.693,0.434
				c0.91,0.354,1.871,0.522,2.81,0.772c0.913,0.239,1.831,0.567,2.58,1.182c0.652,0.531,0.913,1.435,0.913,2.267
				c0,1.357-0.477,2.404-1.425,3.144c-0.891,0.681-2.227,1.017-4.005,1.017c-1.692,0-2.954-0.354-3.786-1.062
				c-0.861-0.707-1.29-1.739-1.29-3.099v-0.142L30.85,57.631L30.85,57.631z"/>
		</g>
	</g>
	<g>
		<g>
			<defs>
				<rect id="SVGID_22_" x="-6.326" y="-24" width="94.576" height="127.098"/>
			</defs>
			<clipPath id="SVGID_23_">
				<use xlink:href="#SVGID_22_"  overflow="visible"/>
			</clipPath>
			<path clip-path="url(#SVGID_23_)" fill="#640812" d="M24.392,76.227h-3.07v-7.215v-0.646c0-0.74-0.217-1.279-0.646-1.618
				c-0.431-0.34-0.912-0.512-1.448-0.512c-0.533,0-1.01,0.172-1.424,0.512c-0.416,0.339-0.624,0.878-0.624,1.618v6.573
				c0,0.711-0.552,1.285-1.234,1.285h-1.883V69.01c0-2.096,0.528-3.494,1.58-4.203c1.055-0.712,2.219-1.099,3.496-1.156
				c0.682,0,1.35,0.076,2.002,0.229c0.653,0.153,1.249,0.463,1.782,0.928c0.445-0.404,0.971-0.688,1.58-0.857
				c0.607-0.167,1.239-0.268,1.892-0.299c1.306,0,2.507,0.354,3.606,1.063c1.098,0.708,1.648,2.145,1.648,4.299v7.215h-1.56
				c-0.445,0-0.808-0.146-1.089-0.44c-0.283-0.292-0.423-0.669-0.423-1.134v-6.284c0-0.74-0.215-1.279-0.646-1.618
				c-0.431-0.34-0.913-0.512-1.447-0.512c-0.534,0-1.016,0.172-1.446,0.512c-0.431,0.339-0.646,0.878-0.646,1.618v0.646V76.227z"/>
		</g>
	</g>
	<g>
		<g>
			<defs>
				<rect id="SVGID_24_" x="-6.326" y="-24" width="94.576" height="127.098"/>
			</defs>
			<clipPath id="SVGID_25_">
				<use xlink:href="#SVGID_24_"  overflow="visible"/>
			</clipPath>
			<path clip-path="url(#SVGID_25_)" fill="#640812" d="M51.191,75.714c-0.623,0.341-1.281,0.55-1.981,0.627
				c-0.698,0.077-1.313,0.115-1.849,0.115c-1.068,0-2.002-0.302-2.803-0.901c-0.804-0.602-1.203-1.596-1.203-2.979
				c0-1.296,0.362-2.222,1.088-2.774c0.729-0.554,1.656-0.926,2.787-1.109c0.146,0,0.326-0.021,0.531-0.068
				c0.209-0.043,0.443-0.082,0.715-0.115c1.305-0.186,1.955-0.586,1.955-1.201c0-0.464-0.229-0.765-0.688-0.902
				c-0.46-0.139-0.884-0.209-1.269-0.209c-0.416,0-0.789,0.063-1.115,0.187c-0.324,0.123-0.563,0.354-0.711,0.693h-2.979
				c0.116-0.955,0.531-1.74,1.247-2.356c0.8-0.707,1.941-1.062,3.426-1.062c1.661,0,2.908,0.288,3.738,0.879
				c0.859,0.614,1.293,1.478,1.293,2.585v4.208c0,1.231-0.217,2.194-0.646,2.89C52.296,74.909,51.784,75.407,51.191,75.714
				 M50.479,70.029c-0.414,0.218-0.994,0.416-1.732,0.602l-1.021,0.232c-0.539,0.152-0.925,0.354-1.158,0.599
				c-0.207,0.343-0.313,0.679-0.313,1.021c0,0.461,0.136,0.832,0.399,1.108c0.267,0.245,0.65,0.368,1.156,0.368
				c0.828,0,1.481-0.244,1.959-0.738c0.476-0.494,0.711-1.173,0.711-2.035V70.029z"/>
		</g>
	</g>
	<g>
		<g>
			<defs>
				<rect id="SVGID_26_" x="-6.326" y="-24" width="94.576" height="127.098"/>
			</defs>
			<clipPath id="SVGID_27_">
				<use xlink:href="#SVGID_26_"  overflow="visible"/>
			</clipPath>
			<path clip-path="url(#SVGID_27_)" fill="#640812" d="M53.952,60.318h1.601c0.415,0,0.772,0.147,1.07,0.441
				c0.295,0.292,0.445,0.654,0.445,1.088v14.377h-1.566c-0.857,0-1.55-0.723-1.55-1.611V60.318z"/>
		</g>
	</g>
	<g>
		<g>
			<defs>
				<rect id="SVGID_28_" x="-6.326" y="-24" width="94.576" height="127.098"/>
			</defs>
			<clipPath id="SVGID_29_">
				<use xlink:href="#SVGID_28_"  overflow="visible"/>
			</clipPath>
			<path clip-path="url(#SVGID_29_)" fill="#640812" d="M40.724,72.412c0.334-0.021,1.816,0.021,2.227,0.021
				c-0.327,1.295-0.95,2.278-1.869,2.959c-0.919,0.709-2.077,1.063-3.472,1.063c-1.692,0-3.013-0.571-3.962-1.713
				c-0.951-1.108-1.426-2.695-1.426-4.762c0-1.974,0.46-3.513,1.381-4.623c0.949-1.14,2.271-1.707,3.961-1.707
				c1.781,0,3.16,0.555,4.141,1.662c0.411,0.467,0.71,1.045,0.923,1.726c0.604,1.907-0.777,3.869-2.708,3.869h-2.922
				c-1.05,0-1.67,1.306-0.959,2.112c0.004,0.004,0.009,0.01,0.012,0.016c0.824,0.91,2.328,1.014,3.268,0.213
				c0.226-0.188,0.416-0.428,0.653-0.607C40.185,72.484,40.448,72.427,40.724,72.412 M35.384,68.826h3.102
				c0.916,0,1.439-1.133,0.825-1.837c-0.004-0.003-0.007-0.007-0.01-0.013c-0.386-0.435-0.936-0.646-1.646-0.646
				c-0.653,0-1.188,0.212-1.604,0.646S35.414,68.027,35.384,68.826"/>
		</g>
	</g>
	<g>
		<g>
			<defs>
				<rect id="SVGID_30_" x="-6.326" y="-24" width="94.576" height="127.098"/>
			</defs>
			<clipPath id="SVGID_31_">
				<use xlink:href="#SVGID_30_"  overflow="visible"/>
			</clipPath>
			<path clip-path="url(#SVGID_31_)" fill="#640812" d="M51.191,75.714c-0.623,0.341-1.281,0.55-1.981,0.627
				c-0.698,0.077-1.313,0.115-1.849,0.115c-1.068,0-2.002-0.302-2.803-0.901c-0.804-0.602-1.203-1.596-1.203-2.979
				c0-1.296,0.362-2.222,1.088-2.774c0.729-0.554,1.656-0.926,2.787-1.109c0.146,0,0.326-0.021,0.531-0.068
				c0.209-0.043,0.443-0.082,0.715-0.115c1.305-0.186,1.955-0.586,1.955-1.201c0-0.464-0.229-0.765-0.688-0.902
				c-0.46-0.139-0.884-0.209-1.269-0.209c-0.416,0-0.789,0.063-1.115,0.187c-0.324,0.123-0.563,0.354-0.711,0.693h-2.979
				c0.116-0.955,0.531-1.74,1.247-2.356c0.8-0.707,1.941-1.062,3.426-1.062c1.661,0,2.908,0.288,3.738,0.879
				c0.859,0.614,1.293,1.478,1.293,2.585v4.208c0,1.231-0.217,2.194-0.646,2.89C52.296,74.909,51.784,75.407,51.191,75.714
				 M50.479,70.029c-0.414,0.218-0.994,0.416-1.732,0.602l-1.021,0.232c-0.539,0.152-0.925,0.354-1.158,0.599
				c-0.207,0.343-0.313,0.679-0.313,1.021c0,0.461,0.136,0.832,0.399,1.108c0.267,0.245,0.65,0.368,1.156,0.368
				c0.828,0,1.481-0.244,1.959-0.738c0.476-0.494,0.711-1.173,0.711-2.035V70.029z"/>
		</g>
	</g>
</g>
<g>
	<path fill="#282828" d="M18.927,81.839h1.572v0.479h-2.174v-3.463h0.602V81.839z"/>
	<path fill="#282828" d="M20.905,79.077c0-0.091,0.029-0.163,0.085-0.222c0.057-0.059,0.137-0.088,0.242-0.088
		s0.186,0.029,0.243,0.088s0.085,0.131,0.085,0.222c0,0.087-0.029,0.159-0.085,0.217c-0.057,0.058-0.138,0.087-0.243,0.087
		s-0.185-0.029-0.242-0.087C20.935,79.236,20.905,79.164,20.905,79.077z M21.52,82.318h-0.578v-2.573h0.578V82.318z"/>
	<path fill="#282828" d="M22.048,81.014c0-0.195,0.024-0.373,0.071-0.535c0.048-0.162,0.117-0.302,0.206-0.416
		c0.089-0.117,0.198-0.205,0.325-0.271c0.126-0.063,0.269-0.097,0.428-0.097c0.155,0,0.289,0.029,0.402,0.082
		c0.112,0.053,0.209,0.129,0.29,0.228l0.026-0.26h0.521v2.502c0,0.173-0.028,0.326-0.085,0.461s-0.137,0.249-0.239,0.341
		c-0.103,0.092-0.225,0.162-0.369,0.211s-0.301,0.071-0.472,0.071c-0.072,0-0.151-0.007-0.238-0.021
		c-0.087-0.017-0.175-0.039-0.264-0.074c-0.089-0.034-0.174-0.079-0.255-0.133c-0.081-0.055-0.15-0.119-0.207-0.196l0.274-0.349
		c0.095,0.112,0.198,0.193,0.31,0.243s0.228,0.073,0.347,0.073c0.192,0,0.343-0.052,0.454-0.156c0.11-0.104,0.166-0.257,0.166-0.457
		v-0.174c-0.08,0.09-0.175,0.159-0.286,0.208c-0.108,0.046-0.236,0.07-0.38,0.07c-0.157,0-0.299-0.033-0.425-0.099
		c-0.125-0.066-0.234-0.156-0.323-0.272c-0.089-0.115-0.158-0.254-0.206-0.412c-0.047-0.16-0.071-0.333-0.071-0.521V81.014z
		 M22.624,81.063c0,0.114,0.011,0.224,0.034,0.323c0.023,0.101,0.06,0.189,0.108,0.265c0.049,0.076,0.111,0.137,0.186,0.181
		c0.074,0.044,0.164,0.065,0.269,0.065c0.129,0,0.236-0.027,0.318-0.082c0.082-0.057,0.149-0.127,0.2-0.219v-1.133
		c-0.051-0.089-0.118-0.161-0.201-0.214c-0.083-0.052-0.188-0.079-0.313-0.079c-0.104,0-0.194,0.021-0.271,0.066
		c-0.077,0.046-0.139,0.104-0.187,0.181c-0.048,0.077-0.085,0.167-0.108,0.269c-0.024,0.104-0.036,0.211-0.036,0.328L22.624,81.063
		L22.624,81.063z"/>
	<path fill="#282828" d="M25.48,80.025c0.089-0.104,0.193-0.186,0.314-0.241c0.121-0.058,0.255-0.089,0.402-0.089
		c0.125,0,0.239,0.02,0.342,0.055c0.103,0.034,0.191,0.09,0.264,0.168c0.073,0.076,0.129,0.178,0.169,0.299
		c0.039,0.123,0.059,0.271,0.059,0.446v1.655h-0.579v-1.66c0-0.178-0.038-0.303-0.115-0.376c-0.077-0.075-0.19-0.112-0.339-0.112
		c-0.12,0-0.224,0.029-0.31,0.084c-0.087,0.057-0.156,0.131-0.208,0.227v1.838h-0.578v-3.652h0.578L25.48,80.025L25.48,80.025z"/>
	<path fill="#282828" d="M28.338,79.119v0.626h0.455v0.427h-0.455v1.438c0,0.06,0.006,0.106,0.019,0.143
		c0.013,0.037,0.031,0.064,0.055,0.085s0.052,0.033,0.084,0.041c0.033,0.006,0.068,0.011,0.108,0.011s0.078-0.004,0.116-0.009
		c0.037-0.005,0.066-0.011,0.086-0.016v0.446c-0.046,0.013-0.099,0.024-0.16,0.037c-0.061,0.012-0.135,0.019-0.22,0.019
		c-0.095,0-0.184-0.013-0.266-0.038c-0.081-0.025-0.152-0.066-0.211-0.123c-0.06-0.059-0.106-0.132-0.139-0.225
		c-0.034-0.092-0.05-0.205-0.05-0.338v-1.472h-0.423v-0.427h0.423v-0.626L28.338,79.119L28.338,79.119z"/>
	<path fill="#282828" d="M29.771,79.745l0.017,0.298c0.091-0.109,0.199-0.193,0.327-0.256c0.126-0.061,0.268-0.092,0.423-0.092
		c0.124,0,0.236,0.02,0.337,0.054c0.101,0.033,0.187,0.088,0.258,0.164c0.071,0.077,0.126,0.177,0.166,0.297
		c0.039,0.123,0.058,0.271,0.058,0.444v1.664h-0.579V80.65c0-0.088-0.009-0.164-0.029-0.225c-0.02-0.063-0.048-0.109-0.087-0.148
		c-0.038-0.037-0.085-0.064-0.141-0.082c-0.056-0.016-0.121-0.025-0.193-0.025c-0.12,0-0.223,0.029-0.311,0.086
		s-0.158,0.135-0.21,0.23v1.832h-0.578v-2.573H29.771z"/>
	<path fill="#282828" d="M31.944,79.077c0-0.091,0.028-0.163,0.084-0.222c0.057-0.059,0.137-0.088,0.242-0.088
		c0.104,0,0.186,0.029,0.243,0.088c0.057,0.059,0.085,0.131,0.085,0.222c0,0.087-0.028,0.159-0.085,0.217
		c-0.057,0.058-0.138,0.087-0.243,0.087s-0.185-0.029-0.242-0.087C31.973,79.236,31.944,79.164,31.944,79.077z M32.559,82.318H31.98
		v-2.573h0.579V82.318z"/>
	<path fill="#282828" d="M33.725,79.745l0.017,0.298c0.09-0.109,0.198-0.193,0.325-0.256c0.127-0.061,0.269-0.092,0.425-0.092
		c0.124,0,0.235,0.02,0.336,0.054c0.101,0.033,0.187,0.088,0.258,0.164c0.071,0.077,0.126,0.177,0.166,0.297
		c0.038,0.123,0.058,0.271,0.058,0.444v1.664H34.73V80.65c0-0.088-0.01-0.164-0.029-0.225c-0.02-0.063-0.049-0.109-0.088-0.148
		c-0.038-0.037-0.084-0.064-0.141-0.082c-0.057-0.016-0.121-0.025-0.193-0.025c-0.119,0-0.223,0.029-0.312,0.086
		c-0.087,0.057-0.157,0.135-0.21,0.23v1.832H33.18v-2.573H33.725z"/>
	<path fill="#282828" d="M35.796,81.014c0-0.195,0.024-0.373,0.071-0.535c0.048-0.162,0.117-0.302,0.206-0.416
		c0.09-0.117,0.196-0.205,0.325-0.271c0.125-0.063,0.27-0.097,0.428-0.097c0.154,0,0.289,0.029,0.402,0.082
		c0.112,0.053,0.209,0.129,0.289,0.228l0.026-0.26h0.521v2.502c0,0.173-0.027,0.326-0.086,0.461
		c-0.057,0.135-0.137,0.249-0.238,0.341c-0.104,0.092-0.225,0.162-0.369,0.211c-0.143,0.049-0.301,0.071-0.473,0.071
		c-0.07,0-0.149-0.007-0.237-0.021c-0.087-0.017-0.175-0.039-0.265-0.074c-0.088-0.034-0.174-0.079-0.254-0.133
		c-0.08-0.055-0.149-0.119-0.207-0.196l0.273-0.349c0.096,0.112,0.199,0.193,0.311,0.243s0.228,0.073,0.347,0.073
		c0.192,0,0.343-0.052,0.454-0.156c0.111-0.104,0.166-0.257,0.166-0.457v-0.174c-0.08,0.09-0.176,0.159-0.285,0.208
		c-0.109,0.046-0.236,0.07-0.381,0.07c-0.157,0-0.299-0.033-0.424-0.099c-0.127-0.066-0.233-0.156-0.323-0.272
		c-0.089-0.115-0.158-0.254-0.206-0.412c-0.047-0.16-0.071-0.333-0.071-0.521V81.014z M36.372,81.063
		c0,0.114,0.012,0.224,0.035,0.323c0.022,0.101,0.059,0.189,0.108,0.265c0.049,0.076,0.11,0.137,0.186,0.181
		c0.074,0.044,0.164,0.065,0.27,0.065c0.129,0,0.235-0.027,0.317-0.082c0.083-0.057,0.149-0.127,0.2-0.219v-1.133
		c-0.051-0.089-0.118-0.161-0.201-0.214c-0.083-0.052-0.188-0.079-0.313-0.079c-0.104,0-0.195,0.021-0.271,0.066
		c-0.077,0.046-0.139,0.104-0.188,0.181c-0.049,0.077-0.084,0.167-0.107,0.269c-0.024,0.104-0.036,0.211-0.036,0.328V81.063z"/>
	<path fill="#282828" d="M41.923,80.852h-1.394v1.467h-0.603v-3.463h2.2v0.485h-1.6v1.03h1.395L41.923,80.852L41.923,80.852z"/>
	<path fill="#282828" d="M44.004,82.318c-0.018-0.03-0.029-0.065-0.04-0.106c-0.01-0.041-0.019-0.086-0.026-0.134
		c-0.039,0.04-0.082,0.078-0.127,0.111c-0.047,0.035-0.1,0.064-0.156,0.092c-0.055,0.027-0.116,0.047-0.182,0.063
		c-0.066,0.014-0.138,0.021-0.211,0.021c-0.129,0-0.246-0.02-0.354-0.059c-0.107-0.039-0.2-0.094-0.277-0.162
		s-0.137-0.149-0.181-0.244c-0.045-0.094-0.065-0.194-0.065-0.305c0-0.138,0.026-0.26,0.079-0.365
		c0.053-0.106,0.128-0.195,0.229-0.267c0.1-0.071,0.223-0.127,0.367-0.164c0.146-0.036,0.312-0.056,0.496-0.056h0.364v-0.169
		c0-0.134-0.037-0.239-0.112-0.32c-0.074-0.079-0.188-0.119-0.34-0.119c-0.068,0-0.13,0.009-0.185,0.027
		c-0.056,0.019-0.103,0.042-0.142,0.073c-0.041,0.031-0.07,0.066-0.092,0.109c-0.021,0.045-0.031,0.09-0.031,0.139h-0.58
		c0-0.101,0.025-0.198,0.076-0.293c0.049-0.096,0.12-0.18,0.213-0.252c0.092-0.074,0.203-0.133,0.334-0.178s0.276-0.068,0.438-0.068
		c0.144,0,0.276,0.021,0.399,0.058s0.228,0.095,0.316,0.167c0.088,0.074,0.157,0.166,0.207,0.275
		c0.049,0.109,0.073,0.238,0.073,0.388v1.142c0,0.23,0.032,0.416,0.098,0.555v0.039h-0.589V82.318z M43.369,81.9
		c0.066,0,0.129-0.008,0.186-0.023c0.059-0.02,0.111-0.042,0.157-0.07c0.047-0.027,0.087-0.062,0.123-0.099
		c0.035-0.036,0.063-0.074,0.083-0.112v-0.486h-0.313c-0.213,0-0.375,0.037-0.482,0.111c-0.107,0.075-0.162,0.182-0.162,0.316
		c0,0.053,0.01,0.102,0.025,0.146c0.018,0.043,0.043,0.084,0.078,0.113c0.035,0.033,0.078,0.059,0.127,0.077
		C43.244,81.895,43.302,81.9,43.369,81.9z"/>
	<path fill="#282828" d="M46.545,81.618c0-0.039-0.007-0.078-0.021-0.115c-0.012-0.035-0.039-0.067-0.08-0.099
		c-0.039-0.032-0.094-0.062-0.166-0.088s-0.166-0.053-0.282-0.075c-0.138-0.028-0.265-0.064-0.377-0.107
		c-0.114-0.042-0.211-0.095-0.291-0.155c-0.081-0.062-0.144-0.133-0.188-0.215c-0.046-0.082-0.068-0.178-0.068-0.285
		c0-0.104,0.022-0.205,0.07-0.299c0.045-0.095,0.111-0.179,0.197-0.25c0.086-0.07,0.191-0.127,0.314-0.168
		c0.123-0.044,0.26-0.064,0.412-0.064c0.16,0,0.305,0.021,0.433,0.064c0.128,0.041,0.235,0.1,0.325,0.172
		c0.088,0.074,0.156,0.162,0.203,0.262s0.07,0.207,0.07,0.324h-0.578c0-0.051-0.011-0.098-0.029-0.145
		c-0.02-0.048-0.047-0.089-0.086-0.126c-0.037-0.036-0.086-0.063-0.141-0.087c-0.057-0.021-0.123-0.031-0.197-0.031
		c-0.072,0-0.137,0.01-0.189,0.026s-0.1,0.043-0.135,0.071s-0.063,0.063-0.079,0.103c-0.019,0.04-0.026,0.08-0.026,0.122
		c0,0.043,0.008,0.081,0.024,0.115c0.016,0.033,0.044,0.063,0.084,0.09s0.094,0.053,0.163,0.074
		c0.068,0.023,0.154,0.047,0.257,0.066c0.149,0.033,0.282,0.07,0.399,0.113c0.119,0.043,0.22,0.095,0.301,0.156
		c0.082,0.062,0.143,0.135,0.187,0.22c0.042,0.083,0.063,0.185,0.063,0.299s-0.024,0.22-0.073,0.313
		c-0.049,0.096-0.119,0.178-0.21,0.246c-0.092,0.068-0.201,0.123-0.33,0.162c-0.128,0.037-0.271,0.057-0.428,0.057
		c-0.176,0-0.332-0.026-0.467-0.075c-0.137-0.05-0.25-0.115-0.342-0.197c-0.093-0.079-0.162-0.172-0.209-0.272
		c-0.046-0.103-0.07-0.207-0.07-0.313h0.562c0.004,0.079,0.022,0.146,0.054,0.199c0.032,0.055,0.072,0.098,0.121,0.132
		c0.051,0.033,0.105,0.058,0.168,0.072c0.062,0.015,0.125,0.022,0.189,0.022c0.152,0,0.268-0.031,0.347-0.088
		S46.545,81.712,46.545,81.618z"/>
	<path fill="#282828" d="M48.341,79.119v0.626h0.454v0.427h-0.454v1.438c0,0.06,0.007,0.106,0.019,0.143
		c0.013,0.037,0.031,0.064,0.056,0.085s0.052,0.033,0.085,0.041c0.032,0.006,0.066,0.011,0.107,0.011
		c0.039,0,0.078-0.004,0.115-0.009c0.036-0.005,0.065-0.011,0.086-0.016v0.446c-0.045,0.013-0.1,0.024-0.16,0.037
		c-0.061,0.012-0.135,0.019-0.219,0.019c-0.096,0-0.185-0.013-0.267-0.038s-0.151-0.066-0.211-0.123
		c-0.062-0.059-0.106-0.132-0.14-0.225c-0.035-0.092-0.051-0.205-0.051-0.338v-1.472h-0.424v-0.427h0.424v-0.626L48.341,79.119
		L48.341,79.119z"/>
	<path fill="#282828" d="M50.505,82.318v-3.463h1.021c0.232,0,0.443,0.039,0.636,0.115c0.19,0.078,0.354,0.188,0.493,0.332
		c0.137,0.145,0.242,0.317,0.318,0.521c0.076,0.202,0.114,0.43,0.114,0.68v0.172c0,0.25-0.037,0.478-0.112,0.681
		c-0.076,0.201-0.184,0.373-0.32,0.518c-0.139,0.143-0.309,0.252-0.504,0.33c-0.194,0.076-0.412,0.115-0.65,0.115H50.505
		L50.505,82.318z M51.105,79.341v2.498H51.5c0.162,0,0.307-0.028,0.43-0.081c0.125-0.053,0.227-0.128,0.309-0.229
		c0.082-0.102,0.143-0.223,0.185-0.367c0.041-0.145,0.062-0.307,0.062-0.487v-0.176c0-0.377-0.08-0.663-0.244-0.86
		c-0.162-0.199-0.4-0.298-0.713-0.298H51.105z"/>
	<path fill="#282828" d="M54.766,82.366c-0.189,0-0.361-0.032-0.515-0.097c-0.151-0.063-0.28-0.148-0.388-0.261
		c-0.105-0.11-0.188-0.241-0.244-0.396c-0.059-0.152-0.086-0.315-0.086-0.492v-0.096c0-0.202,0.029-0.387,0.09-0.551
		s0.145-0.305,0.248-0.418c0.104-0.115,0.229-0.203,0.37-0.269c0.142-0.062,0.295-0.095,0.457-0.095c0.188,0,0.35,0.033,0.487,0.095
		c0.139,0.063,0.252,0.151,0.342,0.265c0.092,0.112,0.16,0.246,0.203,0.401c0.045,0.155,0.066,0.325,0.066,0.512v0.247h-1.682
		c0.007,0.1,0.027,0.191,0.063,0.276c0.034,0.085,0.081,0.155,0.139,0.217c0.061,0.063,0.129,0.108,0.209,0.144
		s0.172,0.053,0.272,0.053c0.144,0,0.267-0.026,0.372-0.084c0.105-0.059,0.196-0.137,0.275-0.235l0.311,0.297
		c-0.042,0.062-0.093,0.121-0.152,0.181c-0.061,0.059-0.133,0.108-0.215,0.153c-0.08,0.046-0.174,0.082-0.275,0.109
		C55.01,82.354,54.895,82.366,54.766,82.366z M54.695,80.161c-0.157,0-0.286,0.056-0.383,0.167c-0.1,0.111-0.16,0.265-0.188,0.464
		h1.103v-0.044c-0.006-0.075-0.018-0.148-0.037-0.219c-0.021-0.071-0.051-0.135-0.092-0.188c-0.041-0.055-0.096-0.099-0.16-0.132
		C54.872,80.178,54.791,80.161,54.695,80.161z"/>
	<path fill="#282828" d="M56.861,82.318h-0.578v-3.653h0.578V82.318z"/>
	<path fill="#282828" d="M57.49,79.077c0-0.091,0.027-0.163,0.085-0.222c0.056-0.059,0.136-0.088,0.241-0.088
		c0.104,0,0.186,0.029,0.242,0.088c0.058,0.059,0.086,0.131,0.086,0.222c0,0.087-0.028,0.159-0.086,0.217s-0.14,0.087-0.242,0.087
		c-0.105,0-0.187-0.029-0.241-0.087C57.52,79.236,57.49,79.164,57.49,79.077z M58.104,82.318h-0.578v-2.573h0.578V82.318z"/>
	<path fill="#282828" d="M59.641,81.586l0.545-1.841h0.598l-0.893,2.573h-0.502l-0.897-2.573h0.598L59.641,81.586z"/>
	<path fill="#282828" d="M62.245,82.366c-0.19,0-0.361-0.032-0.515-0.097c-0.151-0.063-0.28-0.148-0.388-0.261
		c-0.106-0.112-0.187-0.241-0.245-0.396c-0.057-0.152-0.084-0.315-0.084-0.492v-0.096c0-0.202,0.028-0.387,0.09-0.551
		c0.061-0.164,0.143-0.305,0.248-0.418c0.104-0.115,0.228-0.203,0.369-0.269c0.141-0.062,0.295-0.095,0.457-0.095
		c0.188,0,0.35,0.033,0.487,0.095c0.14,0.063,0.253,0.151,0.343,0.265c0.092,0.112,0.158,0.246,0.202,0.401
		c0.045,0.155,0.067,0.325,0.067,0.512v0.247h-1.682c0.006,0.1,0.026,0.191,0.063,0.276c0.033,0.085,0.08,0.155,0.139,0.217
		c0.061,0.063,0.129,0.108,0.208,0.144c0.081,0.035,0.172,0.053,0.272,0.053c0.144,0,0.267-0.026,0.373-0.084
		c0.104-0.059,0.195-0.137,0.273-0.235l0.313,0.297c-0.043,0.062-0.094,0.121-0.153,0.181c-0.06,0.059-0.133,0.108-0.214,0.153
		c-0.082,0.046-0.174,0.082-0.277,0.109C62.488,82.354,62.374,82.366,62.245,82.366z M62.177,80.161
		c-0.159,0-0.286,0.056-0.384,0.167c-0.1,0.111-0.161,0.265-0.188,0.464h1.102v-0.044c-0.005-0.075-0.018-0.148-0.037-0.219
		c-0.02-0.071-0.051-0.135-0.092-0.188s-0.094-0.099-0.16-0.132C62.352,80.178,62.271,80.161,62.177,80.161z"/>
	<path fill="#282828" d="M65.074,80.271c-0.038-0.006-0.077-0.011-0.115-0.014c-0.039-0.003-0.079-0.005-0.121-0.005
		c-0.14,0-0.252,0.028-0.34,0.082c-0.087,0.054-0.152,0.127-0.193,0.222v1.762h-0.578v-2.573h0.551l0.015,0.287
		c0.065-0.104,0.146-0.187,0.242-0.246c0.096-0.06,0.208-0.091,0.339-0.091c0.033,0,0.07,0.006,0.111,0.014
		c0.043,0.006,0.074,0.016,0.093,0.021L65.074,80.271z"/>
	<path fill="#282828" d="M66.382,81.491l0.522-1.746h0.617l-1.023,2.963c-0.023,0.065-0.055,0.136-0.094,0.211
		s-0.09,0.146-0.152,0.211s-0.139,0.118-0.229,0.162s-0.198,0.065-0.323,0.065c-0.05,0-0.099-0.004-0.146-0.014
		c-0.048-0.009-0.094-0.019-0.133-0.029v-0.446c0.016,0.004,0.033,0.006,0.057,0.006c0.021,0.001,0.039,0.001,0.054,0.001
		c0.071,0,0.134-0.005,0.187-0.018c0.055-0.014,0.1-0.031,0.139-0.061c0.041-0.027,0.074-0.063,0.104-0.107
		c0.027-0.043,0.055-0.098,0.076-0.162l0.084-0.221l-0.904-2.563h0.623L66.382,81.491z"/>
</g>
<linearGradient id="SVGID_32_" gradientUnits="userSpaceOnUse" x1="14.0996" y1="80.4434" x2="18.3293" y2="80.4434">
	<stop  offset="0" style="stop-color:#FFFFFF"/>
	<stop  offset="1" style="stop-color:#000000"/>
</linearGradient>
<path fill="url(#SVGID_32_)" d="M18.41,80.173v0.54h-2.3c0.25-0.25,0.35-0.41,0.31-0.54H18.41z"/>
<linearGradient id="SVGID_33_" gradientUnits="userSpaceOnUse" x1="14.0894" y1="82.0488" x2="18.3284" y2="82.0488">
	<stop  offset="0" style="stop-color:#FFFFFF"/>
	<stop  offset="1" style="stop-color:#000000"/>
</linearGradient>
<path fill="url(#SVGID_33_)" d="M18.41,81.778v0.54h-3.8c0.07-0.221,0.1-0.301,0.36-0.54H18.41z"/>
</svg>
